<?xml version="1.0" encoding="utf-8"?>
<!-- Svg Vector Icons : http://www.onlinewebfonts.com/icon -->
<!DOCTYPE svg PUBLIC "-//W3C//DTD SVG 1.1//EN" "http://www.w3.org/Graphics/SVG/1.1/DTD/svg11.dtd">
<svg version="1.1" xmlns="http://www.w3.org/2000/svg" xmlns:xlink="http://www.w3.org/1999/xlink" x="0px" y="0px" viewBox="0 0 1000 1000" enable-background="new 0 0 1000 1000" xml:space="preserve">
<metadata> Svg Vector Icons : http://www.onlinewebfonts.com/icon </metadata>
<g><path d="M681.1,681.1c153.5-153.5,153.5-402.4,0-556c-153.5-153.5-402.4-153.5-556,0c-153.5,153.5-153.5,402.4,0,556C278.7,834.7,527.6,834.7,681.1,681.1L681.1,681.1L681.1,681.1L681.1,681.1z M619.3,619.3c-119.4,119.4-313,119.4-432.4,0c-119.4-119.4-119.4-313,0-432.4c119.4-119.4,313-119.4,432.4,0C738.8,306.3,738.8,499.9,619.3,619.3L619.3,619.3L619.3,619.3L619.3,619.3z"/><path d="M619.3,681.1l61.8-61.8L990,928.2L928.2,990L619.3,681.1z"/></g>
</svg>